<?xml version="1.0" encoding="UTF-8"?><!DOCTYPE svg PUBLIC "-//W3C//DTD SVG 1.1//EN" "http://www.w3.org/Graphics/SVG/1.1/DTD/svg11.dtd"><svg xmlns="http://www.w3.org/2000/svg" xmlns:xlink="http://www.w3.org/1999/xlink"><defs><clipPath id="clip0"><path fill="#fff" transform="translate(3 3)" d="M0 0h15v15H0z"/></clipPath><clipPath id="clip0"><path fill="#fff" transform="translate(3.5 2.5)" d="M0 0h14v14H0z"/></clipPath><clipPath id="clip0"><path fill="#fff" transform="translate(3 2)" d="M0 0h15v15H0z"/></clipPath></defs><symbol id="icon--basket" viewBox="0 0 29 26"><path d="M8.1 18.443h16.653c.38 0 .714-.262.823-.643L28.964 5.87a.936.936 0 00-.134-.795.846.846 0 00-.69-.363H6.276L5.12.643A.865.865 0 004.296 0H.859C.385 0 0 .403 0 .9c0 .498.385.901.86.901h2.795l1.15 4.05a.913.913 0 00.012.04l3.057 10.76c-1.745.123-3.129 1.65-3.129 3.509 0 1.94 1.505 3.518 3.356 3.518h.853c.373 1.34 1.554 2.322 2.95 2.322 1.397 0 2.579-.982 2.951-2.322h4.559c.373 1.34 1.554 2.322 2.95 2.322 1.398 0 2.579-.982 2.952-2.322h1.107c.474 0 .859-.403.859-.9 0-.498-.385-.901-.86-.901h-1.106c-.373-1.34-1.554-2.322-2.951-2.322s-2.578.982-2.951 2.322h-4.559c-.372-1.34-1.554-2.322-2.95-2.322-1.397 0-2.579.982-2.951 2.322H8.1c-.903 0-1.638-.77-1.638-1.717 0-.947.735-1.717 1.638-1.717zM20.706 6.515h6.284l-1.183 4.163h-5.101V6.514zm0 5.964h4.59l-1.184 4.163h-3.406v-4.163zm-6.358-5.964h4.64v4.163h-4.64V6.514zm0 5.964h4.64v4.163h-4.64v-4.163zm-1.718 4.163H9.664l-1.183-4.163h4.148v4.163zM6.787 6.515h5.842v4.163h-4.66L6.788 6.514zm15.578 14.841c.747 0 1.355.638 1.355 1.421 0 .784-.608 1.421-1.355 1.421-.748 0-1.356-.637-1.356-1.42 0-.784.608-1.422 1.356-1.422zm-10.46 0c.747 0 1.355.638 1.355 1.421 0 .784-.608 1.421-1.355 1.421-.748 0-1.356-.637-1.356-1.42 0-.784.608-1.422 1.356-1.422z" fill="#1A2345"/></symbol><symbol id="icon--chevron-down" viewBox="0 0 448 512"><path d="M207.029 381.476L12.686 187.132c-9.373-9.373-9.373-24.569 0-33.941l22.667-22.667c9.357-9.357 24.522-9.375 33.901-.04L224 284.505l154.745-154.021c9.379-9.335 24.544-9.317 33.901.04l22.667 22.667c9.373 9.373 9.373 24.569 0 33.941L240.971 381.476c-9.373 9.372-24.569 9.372-33.942 0z"/></symbol><symbol id="icon--cross" viewBox="0 0 18 18"><path fill="#CDCDCD" d="M15 4.715L4.714 15.001 3 13.287 13.286 3z"/><path fill="#CDCDCD" d="M13.286 15L3 4.714 4.714 3 15 13.286z"/></symbol><symbol id="icon--e-mail" viewBox="0 0 20 20"><g clip-path="url(#clip0)"><path d="M12.943 10.577L18 13.774V7.245l-5.057 3.332zM3 7.245v6.529l5.057-3.197L3 7.245zM17.063 5.344H3.938a.926.926 0 00-.91.798l7.472 4.922 7.472-4.922a.926.926 0 00-.91-.798zM12.084 11.143l-1.327.874a.469.469 0 01-.515 0l-1.327-.875-5.886 3.723a.924.924 0 00.908.791h13.125a.924.924 0 00.907-.791l-5.885-3.722z"/></g></symbol><symbol id="icon--headhunter" viewBox="0 0 20 20"><path d="M4.07 9.469c.6-.719 1.352-1.078 2.258-1.078 1.833 0 2.763 1.065 2.79 3.195V17H6.858v-5.352c0-.484-.104-.84-.312-1.07-.208-.234-.555-.351-1.04-.351-.66 0-1.14.255-1.437.765V17H1.812V5H4.07v4.469zm8.953 0c.6-.719 1.352-1.078 2.258-1.078 1.834 0 2.763 1.065 2.79 3.195V17h-2.259v-5.352c0-.484-.104-.84-.312-1.07-.208-.234-.555-.351-1.04-.351-.66 0-1.14.255-1.437.765V17h-2.257V5h2.257v4.469z"/></symbol><symbol id="icon--hexagon" viewBox="0 0 30 30"><path d="M4.01 8.655L15 2.309l10.99 6.346v12.69L15 27.691 4.01 21.345V8.655z" stroke="#6b84ff" stroke-width="4"/></symbol><symbol id="icon--linkedin" viewBox="0 0 20 20"><g clip-path="url(#clip0)"><path d="M5.207 2.5c.436 0 .777.155 1.025.462.248.308.38.696.399 1.16 0 .46-.14.847-.42 1.162-.28.314-.664.471-1.15.471h-.017c-.473 0-.849-.157-1.128-.471-.276-.315-.416-.702-.416-1.161 0-.472.152-.86.459-1.166.307-.305.723-.457 1.248-.457zM3.683 7.045h2.994v9.454H3.683V7.045zM17.5 11.079v5.42h-2.993v-5.056c0-.643-.117-1.159-.351-1.551-.233-.389-.622-.584-1.172-.584-.418 0-.755.12-1.005.36a2.14 2.14 0 00-.544.792c-.035.105-.058.22-.07.349a4.551 4.551 0 00-.017.408V16.5h-3.01c.012-1.6.02-3.067.02-4.398V8.894c0-.465-.005-.862-.012-1.191-.004-.326-.009-.547-.009-.658h3.011v1.339l-.016.038h.016v-.038a3.87 3.87 0 01.36-.517c.147-.18.323-.348.538-.503.213-.154.47-.28.77-.383a3.253 3.253 0 011.037-.152c.488 0 .943.083 1.367.251.423.167.787.43 1.096.788.308.355.549.798.724 1.327.174.527.26 1.155.26 1.883z"/></g></symbol><symbol id="icon--minus" viewBox="0 0 18 18"><path fill="#CDCDCD" d="M3 8h12v2H3z"/></symbol><symbol id="icon--pentagon" viewBox="0 0 30 30"><path d="M3.085 11.129L15 2.472l11.915 8.657-4.551 14.006H7.636L3.086 11.13z" stroke="#6b84ff" stroke-width="4"/></symbol><symbol id="icon--plus" viewBox="0 0 18 18"><path fill="#CDCDCD" d="M10 3v12H8V3z"/><path fill="#CDCDCD" d="M15 10H3V8h12z"/></symbol><symbol id="icon--rhombus" viewBox="0 0 30 30"><path d="M2.828 15L15 2.828 27.172 15 15 27.172 2.828 15z" stroke="#6b84ff" stroke-width="4"/></symbol><symbol id="icon--share" viewBox="0 0 48 48"><path d="M35.484 5.984a1.5 1.5 0 00-1.045 2.577L36.88 11H35.5c-8.669 0-16.16 5.142-19.555 12.553a1.5 1.5 0 102.727 1.248C21.59 18.429 28.017 14 35.5 14h1.379l-2.44 2.44a1.5 1.5 0 102.122 2.12l4.87-4.87a1.5 1.5 0 00-.007-2.387L36.56 6.439a1.5 1.5 0 00-1.077-.455zM12.5 6C8.928 6 6 8.928 6 12.5v23c0 3.572 2.928 6.5 6.5 6.5h23c3.572 0 6.5-2.928 6.5-6.5v-8a1.5 1.5 0 10-3 0v8c0 1.95-1.55 3.5-3.5 3.5h-23C10.55 39 9 37.45 9 35.5v-23C9 10.55 10.55 9 12.5 9h8a1.5 1.5 0 100-3h-8zm3.287 21.941a1.5 1.5 0 00-1.54 1.295A21.653 21.653 0 0014 32.5a1.5 1.5 0 103 0c0-.957.071-1.896.21-2.813a1.5 1.5 0 00-1.423-1.746z"/></symbol><symbol id="icon--target" viewBox="0 0 22 22"><path clip-rule="evenodd" d="M11.5 12a1.5 1.5 0 100-3 1.5 1.5 0 000 3zm0 1a2.5 2.5 0 100-5 2.5 2.5 0 000 5z"/><path d="M11 3h1v4h-1V3zM15 11v-1h4v1h-4zM4 11v-1h4v1H4zM11 14h1v4h-1v-4zM0 0h1v5H0zM21 0h1v5h-1zM0 17h1v5H0zM21 17h1v5h-1z"/><path d="M17 22v-1h5v1zM0 22v-1h5v1zM0 1V0h5v1zM17 1V0h5v1z"/></symbol><symbol id="icon--telegram" viewBox="0 0 20 20"><g clip-path="url(#clip0)"><path d="M8.886 11.488l-.248 3.49c.355 0 .508-.153.693-.336l1.664-1.59 3.449 2.525c.632.353 1.078.167 1.249-.582l2.263-10.607h.001c.2-.936-.338-1.301-.954-1.072L3.696 8.41c-.908.353-.894.86-.154 1.089l3.402 1.058 7.902-4.945c.372-.246.71-.11.432.137l-6.392 5.739z"/></g></symbol><symbol id="icon--whatsapp" viewBox="0 0 20 20"><path d="M10.502 2h-.004C6.363 2 3 5.364 3 9.5c0 1.64.529 3.161 1.428 4.396l-.935 2.786 2.883-.921A7.435 7.435 0 0010.502 17C14.637 17 18 13.635 18 9.5S14.637 2 10.502 2zm4.364 10.59c-.181.512-.9.936-1.472 1.06-.392.083-.904.15-2.627-.565-2.204-.913-3.623-3.153-3.734-3.298-.106-.145-.89-1.186-.89-2.262 0-1.077.546-1.6.766-1.826.181-.184.48-.269.767-.269.093 0 .176.005.252.009.22.01.33.022.476.37.18.436.621 1.512.674 1.623.053.11.107.26.032.406-.07.15-.133.216-.243.344-.11.127-.216.225-.326.362-.102.119-.216.246-.088.467.127.215.568.934 1.216 1.512.838.745 1.516.983 1.76 1.085.18.074.396.057.528-.084.168-.18.375-.48.586-.776.15-.212.34-.238.538-.163.202.07 1.274.6 1.494.71.22.11.366.162.42.255.052.093.052.53-.13 1.04z"/></symbol></svg>