<svg width="255" height="675" viewBox="0 0 255 675" fill="none" xmlns="http://www.w3.org/2000/svg">
<circle cx="7.5" cy="7.5" r="7.5" fill="#12152F"/>
<circle cx="37.5" cy="7.5" r="7.5" fill="#12152F"/>
<circle cx="67.5" cy="7.5" r="7.5" fill="#12152F"/>
<circle cx="97.5" cy="7.5" r="7.5" fill="#12152F"/>
<circle cx="127.5" cy="7.5" r="7.5" fill="#12152F"/>
<circle cx="157.5" cy="7.5" r="7.5" fill="#12152F"/>
<circle cx="187.5" cy="7.5" r="7.5" fill="#12152F"/>
<circle cx="217.5" cy="7.5" r="7.5" fill="#12152F"/>
<circle cx="247.5" cy="7.5" r="7.5" fill="#12152F"/>
<circle cx="7.5" cy="37.5" r="7.5" fill="#12152F"/>
<circle cx="37.5" cy="37.5" r="7.5" fill="#12152F"/>
<circle cx="67.5" cy="37.5" r="7.5" fill="#12152F"/>
<circle cx="97.5" cy="37.5" r="7.5" fill="#12152F"/>
<circle cx="127.5" cy="37.5" r="7.5" fill="#12152F"/>
<circle cx="157.5" cy="37.5" r="7.5" fill="#12152F"/>
<circle cx="187.5" cy="37.5" r="7.5" fill="#12152F"/>
<circle cx="217.5" cy="37.5" r="7.5" fill="#12152F"/>
<circle cx="247.5" cy="37.5" r="7.5" fill="#12152F"/>
<circle cx="7.5" cy="67.5" r="7.5" fill="#12152F"/>
<circle cx="37.5" cy="67.5" r="7.5" fill="#12152F"/>
<circle cx="67.5" cy="67.5" r="7.5" fill="#12152F"/>
<circle cx="97.5" cy="67.5" r="7.5" fill="#12152F"/>
<circle cx="127.5" cy="67.5" r="7.5" fill="#12152F"/>
<circle cx="157.5" cy="67.5" r="7.5" fill="#12152F"/>
<circle cx="187.5" cy="67.5" r="7.5" fill="#12152F"/>
<circle cx="217.5" cy="67.5" r="7.5" fill="#12152F"/>
<circle cx="247.5" cy="67.5" r="7.5" fill="#12152F"/>
<circle cx="7.5" cy="97.5" r="7.5" fill="#12152F"/>
<circle cx="37.5" cy="97.5" r="7.5" fill="#12152F"/>
<circle cx="67.5" cy="97.5" r="7.5" fill="#12152F"/>
<circle cx="97.5" cy="97.5" r="7.5" fill="#12152F"/>
<circle cx="127.5" cy="97.5" r="7.5" fill="#12152F"/>
<circle cx="157.5" cy="97.5" r="7.5" fill="#12152F"/>
<circle cx="187.5" cy="97.5" r="7.5" fill="#12152F"/>
<circle cx="217.5" cy="97.5" r="7.5" fill="#12152F"/>
<circle cx="247.5" cy="97.5" r="7.5" fill="#12152F"/>
<circle cx="7.5" cy="127.5" r="7.5" fill="#12152F"/>
<circle cx="37.5" cy="127.5" r="7.5" fill="#12152F"/>
<circle cx="67.5" cy="127.5" r="7.5" fill="#12152F"/>
<circle cx="97.5" cy="127.5" r="7.5" fill="#12152F"/>
<circle cx="127.5" cy="127.5" r="7.5" fill="#12152F"/>
<circle cx="157.5" cy="127.5" r="7.5" fill="#12152F"/>
<circle cx="187.5" cy="127.5" r="7.5" fill="#12152F"/>
<circle cx="217.5" cy="127.5" r="7.5" fill="#12152F"/>
<circle cx="247.5" cy="127.5" r="7.5" fill="#12152F"/>
<circle cx="7.5" cy="157.5" r="7.5" fill="#12152F"/>
<circle cx="37.5" cy="157.5" r="7.5" fill="#12152F"/>
<circle cx="67.5" cy="157.5" r="7.5" fill="#12152F"/>
<circle cx="97.5" cy="157.5" r="7.5" fill="#12152F"/>
<circle cx="127.5" cy="157.5" r="7.5" fill="#12152F"/>
<circle cx="157.5" cy="157.5" r="7.5" fill="#12152F"/>
<circle cx="187.5" cy="157.5" r="7.5" fill="#12152F"/>
<circle cx="217.5" cy="157.5" r="7.5" fill="#12152F"/>
<circle cx="247.5" cy="157.5" r="7.5" fill="#12152F"/>
<circle cx="7.5" cy="187.5" r="7.5" fill="#12152F"/>
<circle cx="37.5" cy="187.5" r="7.5" fill="#12152F"/>
<circle cx="67.5" cy="187.5" r="7.5" fill="#12152F"/>
<circle cx="97.5" cy="187.5" r="7.5" fill="#12152F"/>
<circle cx="127.5" cy="187.5" r="7.5" fill="#12152F"/>
<circle cx="157.5" cy="187.5" r="7.5" fill="#12152F"/>
<circle cx="187.5" cy="187.5" r="7.5" fill="#12152F"/>
<circle cx="217.5" cy="187.5" r="7.5" fill="#12152F"/>
<circle cx="247.5" cy="187.5" r="7.5" fill="#12152F"/>
<circle cx="7.5" cy="217.5" r="7.5" fill="#12152F"/>
<circle cx="37.5" cy="217.5" r="7.5" fill="#12152F"/>
<circle cx="67.5" cy="217.5" r="7.5" fill="#12152F"/>
<circle cx="97.5" cy="217.5" r="7.5" fill="#12152F"/>
<circle cx="127.5" cy="217.5" r="7.5" fill="#12152F"/>
<circle cx="157.5" cy="217.5" r="7.5" fill="#12152F"/>
<circle cx="187.5" cy="217.5" r="7.5" fill="#12152F"/>
<circle cx="217.5" cy="217.5" r="7.5" fill="#12152F"/>
<circle cx="247.5" cy="217.5" r="7.5" fill="#12152F"/>
<circle cx="7.5" cy="247.5" r="7.5" fill="#12152F"/>
<circle cx="37.5" cy="247.5" r="7.5" fill="#12152F"/>
<circle cx="67.5" cy="247.5" r="7.5" fill="#12152F"/>
<circle cx="97.5" cy="247.5" r="7.5" fill="#12152F"/>
<circle cx="127.5" cy="247.5" r="7.5" fill="#12152F"/>
<circle cx="157.5" cy="247.5" r="7.5" fill="#12152F"/>
<circle cx="187.5" cy="247.5" r="7.5" fill="#12152F"/>
<circle cx="217.5" cy="247.5" r="7.5" fill="#12152F"/>
<circle cx="247.5" cy="247.5" r="7.5" fill="#12152F"/>
<circle cx="7.5" cy="277.5" r="7.5" fill="#12152F"/>
<circle cx="37.5" cy="277.5" r="7.5" fill="#12152F"/>
<circle cx="67.5" cy="277.5" r="7.5" fill="#12152F"/>
<circle cx="97.5" cy="277.5" r="7.5" fill="#12152F"/>
<circle cx="127.5" cy="277.5" r="7.5" fill="#12152F"/>
<circle cx="157.5" cy="277.5" r="7.5" fill="#12152F"/>
<circle cx="187.5" cy="277.5" r="7.5" fill="#12152F"/>
<circle cx="217.5" cy="277.5" r="7.5" fill="#12152F"/>
<circle cx="247.5" cy="277.5" r="7.5" fill="#12152F"/>
<circle cx="7.5" cy="307.5" r="7.5" fill="#12152F"/>
<circle cx="37.5" cy="307.5" r="7.5" fill="#12152F"/>
<circle cx="67.5" cy="307.5" r="7.5" fill="#12152F"/>
<circle cx="97.5" cy="307.5" r="7.5" fill="#12152F"/>
<circle cx="127.5" cy="307.5" r="7.5" fill="#12152F"/>
<circle cx="157.5" cy="307.5" r="7.5" fill="#12152F"/>
<circle cx="187.5" cy="307.5" r="7.5" fill="#12152F"/>
<circle cx="217.5" cy="307.5" r="7.5" fill="#12152F"/>
<circle cx="247.5" cy="307.5" r="7.5" fill="#12152F"/>
<circle cx="7.5" cy="337.5" r="7.5" fill="#12152F"/>
<circle cx="37.5" cy="337.5" r="7.5" fill="#12152F"/>
<circle cx="67.5" cy="337.5" r="7.5" fill="#12152F"/>
<circle cx="97.5" cy="337.5" r="7.5" fill="#12152F"/>
<circle cx="127.5" cy="337.5" r="7.5" fill="#12152F"/>
<circle cx="157.5" cy="337.5" r="7.5" fill="#12152F"/>
<circle cx="187.5" cy="337.5" r="7.5" fill="#12152F"/>
<circle cx="217.5" cy="337.5" r="7.5" fill="#12152F"/>
<circle cx="247.5" cy="337.5" r="7.5" fill="#12152F"/>
<circle cx="7.5" cy="367.5" r="7.5" fill="#12152F"/>
<circle cx="37.5" cy="367.5" r="7.5" fill="#12152F"/>
<circle cx="67.5" cy="367.5" r="7.5" fill="#12152F"/>
<circle cx="97.5" cy="367.5" r="7.5" fill="#12152F"/>
<circle cx="127.5" cy="367.5" r="7.5" fill="#12152F"/>
<circle cx="157.5" cy="367.5" r="7.5" fill="#12152F"/>
<circle cx="187.5" cy="367.5" r="7.5" fill="#12152F"/>
<circle cx="217.5" cy="367.5" r="7.5" fill="#12152F"/>
<circle cx="247.5" cy="367.5" r="7.5" fill="#12152F"/>
<circle cx="7.5" cy="397.5" r="7.5" fill="#12152F"/>
<circle cx="37.5" cy="397.5" r="7.5" fill="#12152F"/>
<circle cx="67.5" cy="397.5" r="7.5" fill="#12152F"/>
<circle cx="97.5" cy="397.5" r="7.5" fill="#12152F"/>
<circle cx="127.5" cy="397.5" r="7.5" fill="#12152F"/>
<circle cx="157.5" cy="397.5" r="7.5" fill="#12152F"/>
<circle cx="187.5" cy="397.5" r="7.5" fill="#12152F"/>
<circle cx="217.5" cy="397.5" r="7.5" fill="#12152F"/>
<circle cx="247.5" cy="397.5" r="7.5" fill="#12152F"/>
<circle cx="7.5" cy="427.5" r="7.5" fill="#12152F"/>
<circle cx="37.5" cy="427.5" r="7.5" fill="#12152F"/>
<circle cx="67.5" cy="427.5" r="7.5" fill="#12152F"/>
<circle cx="97.5" cy="427.5" r="7.5" fill="#12152F"/>
<circle cx="127.5" cy="427.5" r="7.5" fill="#12152F"/>
<circle cx="157.5" cy="427.5" r="7.5" fill="#12152F"/>
<circle cx="187.5" cy="427.5" r="7.5" fill="#12152F"/>
<circle cx="217.5" cy="427.5" r="7.5" fill="#12152F"/>
<circle cx="247.5" cy="427.5" r="7.5" fill="#12152F"/>
<circle cx="7.5" cy="457.5" r="7.5" fill="#12152F"/>
<circle cx="37.5" cy="457.5" r="7.5" fill="#12152F"/>
<circle cx="67.5" cy="457.5" r="7.5" fill="#12152F"/>
<circle cx="97.5" cy="457.5" r="7.5" fill="#12152F"/>
<circle cx="127.5" cy="457.5" r="7.5" fill="#12152F"/>
<circle cx="157.5" cy="457.5" r="7.5" fill="#12152F"/>
<circle cx="187.5" cy="457.5" r="7.5" fill="#12152F"/>
<circle cx="217.5" cy="457.5" r="7.5" fill="#12152F"/>
<circle cx="247.5" cy="457.5" r="7.5" fill="#12152F"/>
<circle cx="7.5" cy="487.5" r="7.5" fill="#12152F"/>
<circle cx="37.5" cy="487.5" r="7.5" fill="#12152F"/>
<circle cx="67.5" cy="487.5" r="7.5" fill="#12152F"/>
<circle cx="97.5" cy="487.5" r="7.5" fill="#12152F"/>
<circle cx="127.5" cy="487.5" r="7.5" fill="#12152F"/>
<circle cx="157.5" cy="487.5" r="7.5" fill="#12152F"/>
<circle cx="187.5" cy="487.5" r="7.5" fill="#12152F"/>
<circle cx="217.5" cy="487.5" r="7.5" fill="#12152F"/>
<circle cx="247.5" cy="487.5" r="7.5" fill="#12152F"/>
<circle cx="7.5" cy="517.5" r="7.5" fill="#12152F"/>
<circle cx="37.5" cy="517.5" r="7.5" fill="#12152F"/>
<circle cx="67.5" cy="517.5" r="7.5" fill="#12152F"/>
<circle cx="97.5" cy="517.5" r="7.5" fill="#12152F"/>
<circle cx="127.5" cy="517.5" r="7.5" fill="#12152F"/>
<circle cx="157.5" cy="517.5" r="7.5" fill="#12152F"/>
<circle cx="187.5" cy="517.5" r="7.5" fill="#12152F"/>
<circle cx="217.5" cy="517.5" r="7.5" fill="#12152F"/>
<circle cx="247.5" cy="517.5" r="7.5" fill="#12152F"/>
<circle cx="7.5" cy="547.5" r="7.5" fill="#12152F"/>
<circle cx="37.5" cy="547.5" r="7.5" fill="#12152F"/>
<circle cx="67.5" cy="547.5" r="7.5" fill="#12152F"/>
<circle cx="97.5" cy="547.5" r="7.5" fill="#12152F"/>
<circle cx="127.5" cy="547.5" r="7.5" fill="#12152F"/>
<circle cx="157.5" cy="547.5" r="7.5" fill="#12152F"/>
<circle cx="187.5" cy="547.5" r="7.5" fill="#12152F"/>
<circle cx="217.5" cy="547.5" r="7.5" fill="#12152F"/>
<circle cx="247.5" cy="547.5" r="7.5" fill="#12152F"/>
<circle cx="7.5" cy="577.5" r="7.5" fill="#12152F"/>
<circle cx="37.5" cy="577.5" r="7.5" fill="#12152F"/>
<circle cx="67.5" cy="577.5" r="7.5" fill="#12152F"/>
<circle cx="97.5" cy="577.5" r="7.5" fill="#12152F"/>
<circle cx="127.5" cy="577.5" r="7.5" fill="#12152F"/>
<circle cx="157.5" cy="577.5" r="7.5" fill="#12152F"/>
<circle cx="187.5" cy="577.5" r="7.5" fill="#12152F"/>
<circle cx="217.5" cy="577.5" r="7.5" fill="#12152F"/>
<circle cx="247.5" cy="577.5" r="7.5" fill="#12152F"/>
<circle cx="7.5" cy="607.5" r="7.5" fill="#12152F"/>
<circle cx="37.5" cy="607.5" r="7.5" fill="#12152F"/>
<circle cx="67.5" cy="607.5" r="7.5" fill="#12152F"/>
<circle cx="97.5" cy="607.5" r="7.5" fill="#12152F"/>
<circle cx="127.5" cy="607.5" r="7.5" fill="#12152F"/>
<circle cx="157.5" cy="607.5" r="7.5" fill="#12152F"/>
<circle cx="187.5" cy="607.5" r="7.5" fill="#12152F"/>
<circle cx="217.5" cy="607.5" r="7.5" fill="#12152F"/>
<circle cx="247.5" cy="607.5" r="7.5" fill="#12152F"/>
<circle cx="7.5" cy="637.5" r="7.5" fill="#12152F"/>
<circle cx="37.5" cy="637.5" r="7.5" fill="#12152F"/>
<circle cx="67.5" cy="637.5" r="7.5" fill="#12152F"/>
<circle cx="97.5" cy="637.5" r="7.5" fill="#12152F"/>
<circle cx="127.5" cy="637.5" r="7.5" fill="#12152F"/>
<circle cx="157.5" cy="637.5" r="7.5" fill="#12152F"/>
<circle cx="187.5" cy="637.5" r="7.5" fill="#12152F"/>
<circle cx="217.5" cy="637.5" r="7.5" fill="#12152F"/>
<circle cx="247.5" cy="637.5" r="7.5" fill="#12152F"/>
<circle cx="7.5" cy="667.5" r="7.5" fill="#12152F"/>
<circle cx="37.5" cy="667.5" r="7.5" fill="#12152F"/>
<circle cx="67.5" cy="667.5" r="7.5" fill="#12152F"/>
<circle cx="97.5" cy="667.5" r="7.5" fill="#12152F"/>
<circle cx="127.5" cy="667.5" r="7.5" fill="#12152F"/>
<circle cx="157.5" cy="667.5" r="7.5" fill="#12152F"/>
<circle cx="187.5" cy="667.5" r="7.5" fill="#12152F"/>
<circle cx="217.5" cy="667.5" r="7.5" fill="#12152F"/>
<circle cx="247.5" cy="667.5" r="7.5" fill="#12152F"/>
</svg>
